<svg xmlns="http://www.w3.org/2000/svg" version="1.1" xmlns:xlink="http://www.w3.org/1999/xlink" xmlns:svgjs="http://svgjs.dev/svgjs" width="1920" height="1024" preserveAspectRatio="none" viewBox="0 0 1920 1024"><g mask="url(&quot;#SvgjsMask1475&quot;)" fill="none"><rect width="1920" height="1024" x="0" y="0" fill="url(&quot;#SvgjsLinearGradient1476&quot;)"></rect><path d="M1609 209L1034 784" stroke-width="6" stroke="url(&quot;#SvgjsLinearGradient1477&quot;)" stroke-linecap="round" class="TopRight"></path><path d="M1789 352L1325 816" stroke-width="8" stroke="url(&quot;#SvgjsLinearGradient1477&quot;)" stroke-linecap="round" class="TopRight"></path><path d="M1492 926L2092 326" stroke-width="6" stroke="url(&quot;#SvgjsLinearGradient1478&quot;)" stroke-linecap="round" class="TopRight"></path><path d="M1744 600L2179 165" stroke-width="6" stroke="url(&quot;#SvgjsLinearGradient1479&quot;)" stroke-linecap="round" class="BottomLeft"></path><path d="M1234 235L1705 -236" stroke-width="6" stroke="url(&quot;#SvgjsLinearGradient1478&quot;)" stroke-linecap="round" class="TopRight"></path><path d="M206 451L-316 973" stroke-width="8" stroke="url(&quot;#SvgjsLinearGradient1480&quot;)" stroke-linecap="round" class="BottomLeft"></path><path d="M349 527L1008 -132" stroke-width="6" stroke="url(&quot;#SvgjsLinearGradient1480&quot;)" stroke-linecap="round" class="BottomLeft"></path><path d="M1205 884L1655 434" stroke-width="6" stroke="url(&quot;#SvgjsLinearGradient1478&quot;)" stroke-linecap="round" class="TopRight"></path><path d="M742 937L282 1397" stroke-width="6" stroke="url(&quot;#SvgjsLinearGradient1477&quot;)" stroke-linecap="round" class="TopRight"></path><path d="M671 416L1019 68" stroke-width="8" stroke="url(&quot;#SvgjsLinearGradient1478&quot;)" stroke-linecap="round" class="TopRight"></path><path d="M716 782L991 507" stroke-width="6" stroke="url(&quot;#SvgjsLinearGradient1480&quot;)" stroke-linecap="round" class="BottomLeft"></path><path d="M80 619L-254 953" stroke-width="10" stroke="url(&quot;#SvgjsLinearGradient1477&quot;)" stroke-linecap="round" class="TopRight"></path><path d="M1735 917L2487 165" stroke-width="6" stroke="url(&quot;#SvgjsLinearGradient1479&quot;)" stroke-linecap="round" class="BottomLeft"></path><path d="M847 243L387 703" stroke-width="10" stroke="url(&quot;#SvgjsLinearGradient1478&quot;)" stroke-linecap="round" class="TopRight"></path><path d="M344 903L659 588" stroke-width="8" stroke="url(&quot;#SvgjsLinearGradient1478&quot;)" stroke-linecap="round" class="TopRight"></path><path d="M664 200L1252 -388" stroke-width="6" stroke="url(&quot;#SvgjsLinearGradient1477&quot;)" stroke-linecap="round" class="TopRight"></path><path d="M1271 471L685 1057" stroke-width="6" stroke="url(&quot;#SvgjsLinearGradient1479&quot;)" stroke-linecap="round" class="BottomLeft"></path><path d="M121 826L-474 1421" stroke-width="8" stroke="url(&quot;#SvgjsLinearGradient1479&quot;)" stroke-linecap="round" class="BottomLeft"></path><path d="M993 11L1275 -271" stroke-width="8" stroke="url(&quot;#SvgjsLinearGradient1478&quot;)" stroke-linecap="round" class="TopRight"></path><path d="M627 758L1356 29" stroke-width="10" stroke="url(&quot;#SvgjsLinearGradient1477&quot;)" stroke-linecap="round" class="TopRight"></path><path d="M282 48L22 308" stroke-width="6" stroke="url(&quot;#SvgjsLinearGradient1477&quot;)" stroke-linecap="round" class="TopRight"></path><path d="M1107 293L534 866" stroke-width="8" stroke="url(&quot;#SvgjsLinearGradient1479&quot;)" stroke-linecap="round" class="BottomLeft"></path><path d="M1681 211L1377 515" stroke-width="10" stroke="url(&quot;#SvgjsLinearGradient1480&quot;)" stroke-linecap="round" class="BottomLeft"></path><path d="M1549 503L1962 90" stroke-width="6" stroke="url(&quot;#SvgjsLinearGradient1479&quot;)" stroke-linecap="round" class="BottomLeft"></path><path d="M305 446L646 105" stroke-width="8" stroke="url(&quot;#SvgjsLinearGradient1478&quot;)" stroke-linecap="round" class="TopRight"></path><path d="M811 601L1427 -15" stroke-width="10" stroke="url(&quot;#SvgjsLinearGradient1477&quot;)" stroke-linecap="round" class="TopRight"></path><path d="M585 747L868 464" stroke-width="10" stroke="url(&quot;#SvgjsLinearGradient1477&quot;)" stroke-linecap="round" class="TopRight"></path><path d="M1394 651L1699 346" stroke-width="8" stroke="url(&quot;#SvgjsLinearGradient1478&quot;)" stroke-linecap="round" class="TopRight"></path><path d="M1158 224L1900 -518" stroke-width="8" stroke="url(&quot;#SvgjsLinearGradient1477&quot;)" stroke-linecap="round" class="TopRight"></path><path d="M325 564L12 877" stroke-width="8" stroke="url(&quot;#SvgjsLinearGradient1478&quot;)" stroke-linecap="round" class="TopRight"></path><path d="M1196 785L1725 256" stroke-width="8" stroke="url(&quot;#SvgjsLinearGradient1480&quot;)" stroke-linecap="round" class="BottomLeft"></path><path d="M844 781L1595 30" stroke-width="8" stroke="url(&quot;#SvgjsLinearGradient1479&quot;)" stroke-linecap="round" class="BottomLeft"></path><path d="M1444 143L2106 -519" stroke-width="8" stroke="url(&quot;#SvgjsLinearGradient1478&quot;)" stroke-linecap="round" class="TopRight"></path><path d="M933 609L1331 211" stroke-width="6" stroke="url(&quot;#SvgjsLinearGradient1478&quot;)" stroke-linecap="round" class="TopRight"></path><path d="M453 214L-83 750" stroke-width="10" stroke="url(&quot;#SvgjsLinearGradient1477&quot;)" stroke-linecap="round" class="TopRight"></path><path d="M690 66L1003 -247" stroke-width="6" stroke="url(&quot;#SvgjsLinearGradient1477&quot;)" stroke-linecap="round" class="TopRight"></path><path d="M390 82L-213 685" stroke-width="8" stroke="url(&quot;#SvgjsLinearGradient1480&quot;)" stroke-linecap="round" class="BottomLeft"></path><path d="M1476 96L2165 -593" stroke-width="8" stroke="url(&quot;#SvgjsLinearGradient1477&quot;)" stroke-linecap="round" class="TopRight"></path><path d="M458 487L764 181" stroke-width="6" stroke="url(&quot;#SvgjsLinearGradient1479&quot;)" stroke-linecap="round" class="BottomLeft"></path><path d="M442 537L-243 1222" stroke-width="6" stroke="url(&quot;#SvgjsLinearGradient1477&quot;)" stroke-linecap="round" class="TopRight"></path><path d="M1721 684L2121 284" stroke-width="6" stroke="url(&quot;#SvgjsLinearGradient1478&quot;)" stroke-linecap="round" class="TopRight"></path><path d="M1367 1009L1009 1367" stroke-width="6" stroke="url(&quot;#SvgjsLinearGradient1479&quot;)" stroke-linecap="round" class="BottomLeft"></path><path d="M508 556L-156 1220" stroke-width="6" stroke="url(&quot;#SvgjsLinearGradient1480&quot;)" stroke-linecap="round" class="BottomLeft"></path><path d="M1332 442L1716 58" stroke-width="10" stroke="url(&quot;#SvgjsLinearGradient1480&quot;)" stroke-linecap="round" class="BottomLeft"></path><path d="M443 780L-234 1457" stroke-width="8" stroke="url(&quot;#SvgjsLinearGradient1479&quot;)" stroke-linecap="round" class="BottomLeft"></path><path d="M316 879L-85 1280" stroke-width="6" stroke="url(&quot;#SvgjsLinearGradient1478&quot;)" stroke-linecap="round" class="TopRight"></path><path d="M315 201L51 465" stroke-width="10" stroke="url(&quot;#SvgjsLinearGradient1478&quot;)" stroke-linecap="round" class="TopRight"></path><path d="M289 119L-159 567" stroke-width="10" stroke="url(&quot;#SvgjsLinearGradient1478&quot;)" stroke-linecap="round" class="TopRight"></path><path d="M1112 603L415 1300" stroke-width="10" stroke="url(&quot;#SvgjsLinearGradient1478&quot;)" stroke-linecap="round" class="TopRight"></path><path d="M1846 383L2202 27" stroke-width="8" stroke="url(&quot;#SvgjsLinearGradient1477&quot;)" stroke-linecap="round" class="TopRight"></path><path d="M1398 671L1141 928" stroke-width="8" stroke="url(&quot;#SvgjsLinearGradient1477&quot;)" stroke-linecap="round" class="TopRight"></path><path d="M1269 240L1779 -270" stroke-width="10" stroke="url(&quot;#SvgjsLinearGradient1478&quot;)" stroke-linecap="round" class="TopRight"></path><path d="M1590 250L1856 -16" stroke-width="8" stroke="url(&quot;#SvgjsLinearGradient1477&quot;)" stroke-linecap="round" class="TopRight"></path><path d="M954 640L421 1173" stroke-width="8" stroke="url(&quot;#SvgjsLinearGradient1480&quot;)" stroke-linecap="round" class="BottomLeft"></path><path d="M5 1018L500 523" stroke-width="6" stroke="url(&quot;#SvgjsLinearGradient1477&quot;)" stroke-linecap="round" class="TopRight"></path></g><defs><mask id="SvgjsMask1475"><rect width="1920" height="1024" fill="#ffffff"></rect></mask><linearGradient x1="11.67%" y1="-21.87%" x2="88.33%" y2="121.88%" gradientUnits="userSpaceOnUse" id="SvgjsLinearGradient1476"><stop stop-color="#0e2a47" offset="0"></stop><stop stop-color="rgba(19, 55, 34, 1)" offset="1"></stop></linearGradient><linearGradient x1="0%" y1="100%" x2="100%" y2="0%" id="SvgjsLinearGradient1477"><stop stop-color="rgba(19, 141, 40, 0)" offset="0"></stop><stop stop-color="rgba(19, 141, 40, 1)" offset="1"></stop></linearGradient><linearGradient x1="0%" y1="100%" x2="100%" y2="0%" id="SvgjsLinearGradient1478"><stop stop-color="rgba(158, 187, 28, 0)" offset="0"></stop><stop stop-color="rgba(158, 187, 28, 1)" offset="1"></stop></linearGradient><linearGradient x1="100%" y1="0%" x2="0%" y2="100%" id="SvgjsLinearGradient1479"><stop stop-color="rgba(19, 141, 40, 0)" offset="0"></stop><stop stop-color="rgba(19, 141, 40, 1)" offset="1"></stop></linearGradient><linearGradient x1="100%" y1="0%" x2="0%" y2="100%" id="SvgjsLinearGradient1480"><stop stop-color="rgba(158, 187, 28, 0)" offset="0"></stop><stop stop-color="rgba(158, 187, 28, 1)" offset="1"></stop></linearGradient></defs></svg>