<svg xmlns="http://www.w3.org/2000/svg" version="1.1" xmlns:xlink="http://www.w3.org/1999/xlink" xmlns:svgjs="http://svgjs.dev/svgjs" width="1920" height="1080" preserveAspectRatio="none" viewBox="0 0 1920 1080"><g mask="url(&quot;#SvgjsMask1070&quot;)" fill="none"><rect width="1920" height="1080" x="0" y="0" fill="#007BFF"></rect><path d="M650.8 384.91L731.38 384.91L731.38 408.28L650.8 408.28z" stroke="#28A745"></path><path d="M532.74 934.91 a102.51 102.51 0 1 0 205.02 0 a102.51 102.51 0 1 0 -205.02 0z" fill="#28A745"></path><path d="M967.06 367.82 a53.65 53.65 0 1 0 107.3 0 a53.65 53.65 0 1 0 -107.3 0z" fill="#28A745"></path><path d="M1073.35 60.62a70.31 70.31 0 1 0 56.2 128.9z" fill="#FFC107"></path><path d="M974.26 33.2L980.15 33.2L980.15 39.09L974.26 39.09z" stroke="#FFC107"></path><path d="M1555.42 551.36L1606.07 551.36L1606.07 646.31L1555.42 646.31z" stroke="#28A745"></path><path d="M1646.45 292.88L1648.99 292.88L1648.99 362.16L1646.45 362.16z" fill="#28A745"></path><path d="M503.74 252.56L530.51 252.56L530.51 279.33L503.74 279.33z" fill="#FFC107"></path><path d="M1201.89 962.25 a64.18 64.18 0 1 0 128.36 0 a64.18 64.18 0 1 0 -128.36 0z" fill="#E73635"></path><path d="M1196.4 509.14L1300.75 509.14L1300.75 613.49L1196.4 613.49z" stroke="#E73635"></path><path d="M95.26 951.28L126.35 951.28L126.35 982.37L95.26 982.37z" fill="#E73635"></path><path d="M669.51 973.98L761.24 973.98L761.24 1068.19L669.51 1068.19z" fill="#E73635"></path><path d="M1040.28 133.96a89.12 89.12 0 1 0 56.63-169.01z" stroke="#E73635"></path><path d="M235.99 153.57L264.89 153.57L264.89 182.47L235.99 182.47z" stroke="#E73635"></path><path d="M173.02 548.91a69.8 69.8 0 1 0 53.21-129.06z" fill="#28A745"></path><path d="M1541.89 880.72L1639.14 880.72L1639.14 930.52L1541.89 930.52z" stroke="#FFC107"></path><path d="M776.2-29.66a75.4 75.4 0 1 0 5.12 150.71z" stroke="#28A745"></path><path d="M963.27 699.68L970.3 699.68L970.3 770.77L963.27 770.77z" fill="#E73635"></path><path d="M1827.83 324.21 a42.69 42.69 0 1 0 85.38 0 a42.69 42.69 0 1 0 -85.38 0z" fill="#E73635"></path><path d="M1425.52 340.98L1430.72 340.98L1430.72 435.41L1425.52 435.41z" fill="#28A745"></path><path d="M1628.1 744.22L1687.21 744.22L1687.21 817.77L1628.1 817.77z" stroke="#E73635"></path><path d="M1506.22 391.39L1572.13 391.39L1572.13 457.3L1506.22 457.3z" fill="#FFC107"></path><path d="M1812.8 843.56L1823.67 843.56L1823.67 849.26L1812.8 849.26z" fill="#E73635"></path></g><defs><mask id="SvgjsMask1070"><rect width="1920" height="1080" fill="#ffffff"></rect></mask></defs></svg>
